<svg width="630" height="175" viewBox="0 0 630 175" fill="none" xmlns="http://www.w3.org/2000/svg">
<path d="M1 174C99 86 475 69.0001 629 96.0001" stroke="black"/>
<ellipse cx="442.5" cy="95.5" rx="127.5" ry="11.5" fill="#2400FF" fill-opacity="0.5"/>
<path d="M203.679 111.588C205.062 117.167 170.813 130.459 127.182 141.275C83.55 152.092 47.0585 156.338 45.6754 150.76C44.2923 145.181 78.5414 131.889 122.173 121.072C165.804 110.256 202.296 106.009 203.679 111.588Z" fill="#FF0000" fill-opacity="0.29"/>
<path d="M96 33L92.066 43.8562L103.435 41.8351L96 33ZM112.985 122.825L98.5599 41.686L96.5907 42.0361L111.015 123.175L112.985 122.825Z" fill="#FF0000"/>
<path d="M181 107L172.563 114.883L169.954 103.635L181 107ZM111.774 122.026L172.007 108.059L172.459 110.007L112.226 123.974L111.774 122.026Z" fill="black"/>
<path d="M163 29L163.306 40.543L153.156 35.0364L163 29ZM111.121 122.523L157.829 36.4338L159.587 37.3876L112.879 123.477L111.121 122.523Z" fill="black"/>
<circle cx="112" cy="123" r="3" fill="black"/>
<path d="M109.99 161V152.469H112.398C113.141 152.469 113.797 152.633 114.367 152.961C114.938 153.289 115.377 153.756 115.686 154.361C115.998 154.967 116.156 155.662 116.16 156.447V156.992C116.16 157.797 116.004 158.502 115.691 159.107C115.383 159.713 114.939 160.178 114.361 160.502C113.787 160.826 113.117 160.992 112.352 161H109.99ZM111.115 153.395V160.08H112.299C113.166 160.08 113.84 159.811 114.32 159.271C114.805 158.732 115.047 157.965 115.047 156.969V156.471C115.047 155.502 114.818 154.75 114.361 154.215C113.908 153.676 113.264 153.402 112.428 153.395H111.115ZM117.408 157.771C117.408 157.15 117.529 156.592 117.771 156.096C118.018 155.6 118.357 155.217 118.791 154.947C119.229 154.678 119.727 154.543 120.285 154.543C121.148 154.543 121.846 154.842 122.377 155.439C122.912 156.037 123.18 156.832 123.18 157.824V157.9C123.18 158.518 123.061 159.072 122.822 159.564C122.588 160.053 122.25 160.434 121.809 160.707C121.371 160.98 120.867 161.117 120.297 161.117C119.438 161.117 118.74 160.818 118.205 160.221C117.674 159.623 117.408 158.832 117.408 157.848V157.771ZM118.498 157.9C118.498 158.604 118.66 159.168 118.984 159.594C119.312 160.02 119.75 160.232 120.297 160.232C120.848 160.232 121.285 160.018 121.609 159.588C121.934 159.154 122.096 158.549 122.096 157.771C122.096 157.076 121.93 156.514 121.598 156.084C121.27 155.65 120.832 155.434 120.285 155.434C119.75 155.434 119.318 155.646 118.99 156.072C118.662 156.498 118.498 157.107 118.498 157.9ZM124.281 157.777C124.281 156.789 124.51 156.004 124.967 155.422C125.424 154.836 126.029 154.543 126.783 154.543C127.557 154.543 128.16 154.816 128.594 155.363L128.646 154.66H129.637V160.848C129.637 161.668 129.393 162.314 128.904 162.787C128.42 163.26 127.768 163.496 126.947 163.496C126.49 163.496 126.043 163.398 125.605 163.203C125.168 163.008 124.834 162.74 124.604 162.4L125.166 161.75C125.631 162.324 126.199 162.611 126.871 162.611C127.398 162.611 127.809 162.463 128.102 162.166C128.398 161.869 128.547 161.451 128.547 160.912V160.367C128.113 160.867 127.521 161.117 126.771 161.117C126.029 161.117 125.428 160.818 124.967 160.221C124.51 159.623 124.281 158.809 124.281 157.777ZM125.371 157.9C125.371 158.615 125.518 159.178 125.811 159.588C126.104 159.994 126.514 160.197 127.041 160.197C127.725 160.197 128.227 159.887 128.547 159.266V156.371C128.215 155.766 127.717 155.463 127.053 155.463C126.525 155.463 126.113 155.668 125.816 156.078C125.52 156.488 125.371 157.096 125.371 157.9Z" fill="black"/>
<path d="M159.121 18.0801H163.164V19H157.99V10.4688H159.121V18.0801ZM163.99 15.7715C163.99 15.1504 164.111 14.5918 164.354 14.0957C164.6 13.5996 164.939 13.2168 165.373 12.9473C165.811 12.6777 166.309 12.543 166.867 12.543C167.73 12.543 168.428 12.8418 168.959 13.4395C169.494 14.0371 169.762 14.832 169.762 15.8242V15.9004C169.762 16.5176 169.643 17.0723 169.404 17.5645C169.17 18.0527 168.832 18.4336 168.391 18.707C167.953 18.9805 167.449 19.1172 166.879 19.1172C166.02 19.1172 165.322 18.8184 164.787 18.2207C164.256 17.623 163.99 16.832 163.99 15.8477V15.7715ZM165.08 15.9004C165.08 16.6035 165.242 17.168 165.566 17.5938C165.895 18.0195 166.332 18.2324 166.879 18.2324C167.43 18.2324 167.867 18.0176 168.191 17.5879C168.516 17.1543 168.678 16.5488 168.678 15.7715C168.678 15.0762 168.512 14.5137 168.18 14.084C167.852 13.6504 167.414 13.4336 166.867 13.4336C166.332 13.4336 165.9 13.6465 165.572 14.0723C165.244 14.498 165.08 15.1074 165.08 15.9004ZM174.812 17.3184C174.812 17.0254 174.701 16.7988 174.479 16.6387C174.26 16.4746 173.875 16.334 173.324 16.2168C172.777 16.0996 172.342 15.959 172.018 15.7949C171.697 15.6309 171.459 15.4355 171.303 15.209C171.15 14.9824 171.074 14.7129 171.074 14.4004C171.074 13.8809 171.293 13.4414 171.73 13.082C172.172 12.7227 172.734 12.543 173.418 12.543C174.137 12.543 174.719 12.7285 175.164 13.0996C175.613 13.4707 175.838 13.9453 175.838 14.5234H174.748C174.748 14.2266 174.621 13.9707 174.367 13.7559C174.117 13.541 173.801 13.4336 173.418 13.4336C173.023 13.4336 172.715 13.5195 172.492 13.6914C172.27 13.8633 172.158 14.0879 172.158 14.3652C172.158 14.627 172.262 14.8242 172.469 14.957C172.676 15.0898 173.049 15.2168 173.588 15.3379C174.131 15.459 174.57 15.6035 174.906 15.7715C175.242 15.9395 175.49 16.1426 175.65 16.3809C175.814 16.6152 175.896 16.9023 175.896 17.2422C175.896 17.8086 175.67 18.2637 175.217 18.6074C174.764 18.9473 174.176 19.1172 173.453 19.1172C172.945 19.1172 172.496 19.0273 172.105 18.8477C171.715 18.668 171.408 18.418 171.186 18.0977C170.967 17.7734 170.857 17.4238 170.857 17.0488H171.941C171.961 17.4121 172.105 17.7012 172.375 17.916C172.648 18.127 173.008 18.2324 173.453 18.2324C173.863 18.2324 174.191 18.1504 174.438 17.9863C174.688 17.8184 174.812 17.5957 174.812 17.3184ZM181 17.3184C181 17.0254 180.889 16.7988 180.666 16.6387C180.447 16.4746 180.062 16.334 179.512 16.2168C178.965 16.0996 178.529 15.959 178.205 15.7949C177.885 15.6309 177.646 15.4355 177.49 15.209C177.338 14.9824 177.262 14.7129 177.262 14.4004C177.262 13.8809 177.48 13.4414 177.918 13.082C178.359 12.7227 178.922 12.543 179.605 12.543C180.324 12.543 180.906 12.7285 181.352 13.0996C181.801 13.4707 182.025 13.9453 182.025 14.5234H180.936C180.936 14.2266 180.809 13.9707 180.555 13.7559C180.305 13.541 179.988 13.4336 179.605 13.4336C179.211 13.4336 178.902 13.5195 178.68 13.6914C178.457 13.8633 178.346 14.0879 178.346 14.3652C178.346 14.627 178.449 14.8242 178.656 14.957C178.863 15.0898 179.236 15.2168 179.775 15.3379C180.318 15.459 180.758 15.6035 181.094 15.7715C181.43 15.9395 181.678 16.1426 181.838 16.3809C182.002 16.6152 182.084 16.9023 182.084 17.2422C182.084 17.8086 181.857 18.2637 181.404 18.6074C180.951 18.9473 180.363 19.1172 179.641 19.1172C179.133 19.1172 178.684 19.0273 178.293 18.8477C177.902 18.668 177.596 18.418 177.373 18.0977C177.154 17.7734 177.045 17.4238 177.045 17.0488H178.129C178.148 17.4121 178.293 17.7012 178.562 17.916C178.836 18.127 179.195 18.2324 179.641 18.2324C180.051 18.2324 180.379 18.1504 180.625 17.9863C180.875 17.8184 181 17.5957 181 17.3184ZM192.941 17.8809C192.652 18.2949 192.248 18.6055 191.729 18.8125C191.213 19.0156 190.611 19.1172 189.924 19.1172C189.229 19.1172 188.611 18.9551 188.072 18.6309C187.533 18.3027 187.115 17.8379 186.818 17.2363C186.525 16.6348 186.375 15.9375 186.367 15.1445V14.4004C186.367 13.1152 186.666 12.1191 187.264 11.4121C187.865 10.7051 188.709 10.3516 189.795 10.3516C190.686 10.3516 191.402 10.5801 191.945 11.0371C192.488 11.4902 192.82 12.1348 192.941 12.9707H191.816C191.605 11.8418 190.934 11.2773 189.801 11.2773C189.047 11.2773 188.475 11.543 188.084 12.0742C187.697 12.6016 187.502 13.3672 187.498 14.3711V15.0684C187.498 16.0254 187.717 16.7871 188.154 17.3535C188.592 17.916 189.184 18.1973 189.93 18.1973C190.352 18.1973 190.721 18.1504 191.037 18.0566C191.354 17.9629 191.615 17.8047 191.822 17.582V15.666H189.848V14.752H192.941V17.8809ZM197.717 13.6328C197.553 13.6055 197.375 13.5918 197.184 13.5918C196.473 13.5918 195.99 13.8945 195.736 14.5V19H194.652V12.6602H195.707L195.725 13.3926C196.08 12.8262 196.584 12.543 197.236 12.543C197.447 12.543 197.607 12.5703 197.717 12.625V13.6328ZM202.398 19C202.336 18.875 202.285 18.6523 202.246 18.332C201.742 18.8555 201.141 19.1172 200.441 19.1172C199.816 19.1172 199.303 18.9414 198.9 18.5898C198.502 18.2344 198.303 17.7852 198.303 17.2422C198.303 16.582 198.553 16.0703 199.053 15.707C199.557 15.3398 200.264 15.1562 201.174 15.1562H202.229V14.6582C202.229 14.2793 202.115 13.9785 201.889 13.7559C201.662 13.5293 201.328 13.416 200.887 13.416C200.5 13.416 200.176 13.5137 199.914 13.709C199.652 13.9043 199.521 14.1406 199.521 14.418H198.432C198.432 14.1016 198.543 13.7969 198.766 13.5039C198.992 13.207 199.297 12.9727 199.68 12.8008C200.066 12.6289 200.49 12.543 200.951 12.543C201.682 12.543 202.254 12.7266 202.668 13.0938C203.082 13.457 203.297 13.959 203.312 14.5996V17.5176C203.312 18.0996 203.387 18.5625 203.535 18.9062V19H202.398ZM200.6 18.1738C200.939 18.1738 201.262 18.0859 201.566 17.9102C201.871 17.7344 202.092 17.5059 202.229 17.2246V15.9238H201.379C200.051 15.9238 199.387 16.3125 199.387 17.0898C199.387 17.4297 199.5 17.6953 199.727 17.8867C199.953 18.0781 200.244 18.1738 200.6 18.1738ZM204.748 15.7773C204.748 14.8047 204.979 14.0234 205.439 13.4336C205.9 12.8398 206.504 12.543 207.25 12.543C207.992 12.543 208.58 12.7969 209.014 13.3047V10H210.098V19H209.102L209.049 18.3203C208.615 18.8516 208.012 19.1172 207.238 19.1172C206.504 19.1172 205.904 18.8164 205.439 18.2148C204.979 17.6133 204.748 16.8281 204.748 15.8594V15.7773ZM205.832 15.9004C205.832 16.6191 205.98 17.1816 206.277 17.5879C206.574 17.9941 206.984 18.1973 207.508 18.1973C208.195 18.1973 208.697 17.8887 209.014 17.2715V14.3594C208.689 13.7617 208.191 13.4629 207.52 13.4629C206.988 13.4629 206.574 13.668 206.277 14.0781C205.98 14.4883 205.832 15.0957 205.832 15.9004ZM212.963 19H211.879V12.6602H212.963V19ZM211.791 10.9785C211.791 10.8027 211.844 10.6543 211.949 10.5332C212.059 10.4121 212.219 10.3516 212.43 10.3516C212.641 10.3516 212.801 10.4121 212.91 10.5332C213.02 10.6543 213.074 10.8027 213.074 10.9785C213.074 11.1543 213.02 11.3008 212.91 11.418C212.801 11.5352 212.641 11.5938 212.43 11.5938C212.219 11.5938 212.059 11.5352 211.949 11.418C211.844 11.3008 211.791 11.1543 211.791 10.9785ZM217.334 19.1172C216.475 19.1172 215.775 18.8359 215.236 18.2734C214.697 17.707 214.428 16.9512 214.428 16.0059V15.8066C214.428 15.1777 214.547 14.6172 214.785 14.125C215.027 13.6289 215.363 13.2422 215.793 12.9648C216.227 12.6836 216.695 12.543 217.199 12.543C218.023 12.543 218.664 12.8145 219.121 13.3574C219.578 13.9004 219.807 14.6777 219.807 15.6895V16.1406H215.512C215.527 16.7656 215.709 17.2715 216.057 17.6582C216.408 18.041 216.854 18.2324 217.393 18.2324C217.775 18.2324 218.1 18.1543 218.365 17.998C218.631 17.8418 218.863 17.6348 219.062 17.377L219.725 17.8926C219.193 18.709 218.396 19.1172 217.334 19.1172ZM217.199 13.4336C216.762 13.4336 216.395 13.5938 216.098 13.9141C215.801 14.2305 215.617 14.6758 215.547 15.25H218.723V15.168C218.691 14.6172 218.543 14.1914 218.277 13.8906C218.012 13.5859 217.652 13.4336 217.199 13.4336ZM222.092 12.6602L222.127 13.457C222.611 12.8477 223.244 12.543 224.025 12.543C225.365 12.543 226.041 13.2988 226.053 14.8105V19H224.969V14.8047C224.965 14.3477 224.859 14.0098 224.652 13.791C224.449 13.5723 224.131 13.4629 223.697 13.4629C223.346 13.4629 223.037 13.5566 222.771 13.7441C222.506 13.9316 222.299 14.1777 222.15 14.4824V19H221.066V12.6602H222.092ZM229.158 11.125V12.6602H230.342V13.498H229.158V17.4297C229.158 17.6836 229.211 17.875 229.316 18.0039C229.422 18.1289 229.602 18.1914 229.855 18.1914C229.98 18.1914 230.152 18.168 230.371 18.1211V19C230.086 19.0781 229.809 19.1172 229.539 19.1172C229.055 19.1172 228.689 18.9707 228.443 18.6777C228.197 18.3848 228.074 17.9688 228.074 17.4297V13.498H226.92V12.6602H228.074V11.125H229.158ZM234.549 15.5371C234.549 14.6543 234.666 13.8066 234.9 12.9941C235.139 12.1816 235.492 11.4434 235.961 10.7793C236.43 10.1152 236.916 9.64648 237.42 9.37305L237.643 10.0879C237.072 10.5254 236.604 11.1934 236.236 12.0918C235.873 12.9902 235.674 13.9961 235.639 15.1094L235.633 15.6074C235.633 17.1152 235.908 18.4238 236.459 19.5332C236.791 20.1973 237.186 20.7168 237.643 21.0918L237.42 21.7539C236.9 21.4648 236.404 20.9805 235.932 20.3008C235.01 18.9727 234.549 17.3848 234.549 15.5371ZM239.986 15.6602V19H238.861V10.4688H242.008C242.941 10.4688 243.672 10.707 244.199 11.1836C244.73 11.6602 244.996 12.291 244.996 13.0762C244.996 13.9043 244.736 14.543 244.217 14.9922C243.701 15.4375 242.961 15.6602 241.996 15.6602H239.986ZM239.986 14.7402H242.008C242.609 14.7402 243.07 14.5996 243.391 14.3184C243.711 14.0332 243.871 13.623 243.871 13.0879C243.871 12.5801 243.711 12.1738 243.391 11.8691C243.07 11.5645 242.631 11.4062 242.072 11.3945H239.986V14.7402ZM252.73 17.8809C252.441 18.2949 252.037 18.6055 251.518 18.8125C251.002 19.0156 250.4 19.1172 249.713 19.1172C249.018 19.1172 248.4 18.9551 247.861 18.6309C247.322 18.3027 246.904 17.8379 246.607 17.2363C246.314 16.6348 246.164 15.9375 246.156 15.1445V14.4004C246.156 13.1152 246.455 12.1191 247.053 11.4121C247.654 10.7051 248.498 10.3516 249.584 10.3516C250.475 10.3516 251.191 10.5801 251.734 11.0371C252.277 11.4902 252.609 12.1348 252.73 12.9707H251.605C251.395 11.8418 250.723 11.2773 249.59 11.2773C248.836 11.2773 248.264 11.543 247.873 12.0742C247.486 12.6016 247.291 13.3672 247.287 14.3711V15.0684C247.287 16.0254 247.506 16.7871 247.943 17.3535C248.381 17.916 248.973 18.1973 249.719 18.1973C250.141 18.1973 250.51 18.1504 250.826 18.0566C251.143 17.9629 251.404 17.8047 251.611 17.582V15.666H249.637V14.752H252.73V17.8809ZM254.611 19V10.4688H257.02C257.762 10.4688 258.418 10.6328 258.988 10.9609C259.559 11.2891 259.998 11.7559 260.307 12.3613C260.619 12.9668 260.777 13.6621 260.781 14.4473V14.9922C260.781 15.7969 260.625 16.502 260.312 17.1074C260.004 17.7129 259.561 18.1777 258.982 18.502C258.408 18.8262 257.738 18.9922 256.973 19H254.611ZM255.736 11.3945V18.0801H256.92C257.787 18.0801 258.461 17.8105 258.941 17.2715C259.426 16.7324 259.668 15.9648 259.668 14.9688V14.4707C259.668 13.502 259.439 12.75 258.982 12.2148C258.529 11.6758 257.885 11.4023 257.049 11.3945H255.736ZM264.818 15.5957C264.818 16.4668 264.703 17.3027 264.473 18.1035C264.246 18.9004 263.896 19.6367 263.424 20.3125C262.955 20.9883 262.463 21.4688 261.947 21.7539L261.719 21.0918C262.32 20.6309 262.803 19.916 263.166 18.9473C263.533 17.9746 263.721 16.8965 263.729 15.7129V15.5254C263.729 14.7051 263.643 13.9434 263.471 13.2402C263.299 12.5332 263.059 11.9004 262.75 11.3418C262.445 10.7832 262.102 10.3477 261.719 10.0352L261.947 9.37305C262.463 9.6582 262.953 10.1348 263.418 10.8027C263.887 11.4707 264.236 12.207 264.467 13.0117C264.701 13.8164 264.818 14.6777 264.818 15.5957Z" fill="black"/>
<path d="M156.695 91.2324H153.115V95H151.99V86.4688H157.275V87.3945H153.115V90.3125H156.695V91.2324ZM160.955 95.1172C160.096 95.1172 159.396 94.8359 158.857 94.2734C158.318 93.707 158.049 92.9512 158.049 92.0059V91.8066C158.049 91.1777 158.168 90.6172 158.406 90.125C158.648 89.6289 158.984 89.2422 159.414 88.9648C159.848 88.6836 160.316 88.543 160.82 88.543C161.645 88.543 162.285 88.8145 162.742 89.3574C163.199 89.9004 163.428 90.6777 163.428 91.6895V92.1406H159.133C159.148 92.7656 159.33 93.2715 159.678 93.6582C160.029 94.041 160.475 94.2324 161.014 94.2324C161.396 94.2324 161.721 94.1543 161.986 93.998C162.252 93.8418 162.484 93.6348 162.684 93.377L163.346 93.8926C162.814 94.709 162.018 95.1172 160.955 95.1172ZM160.82 89.4336C160.383 89.4336 160.016 89.5938 159.719 89.9141C159.422 90.2305 159.238 90.6758 159.168 91.25H162.344V91.168C162.312 90.6172 162.164 90.1914 161.898 89.8906C161.633 89.5859 161.273 89.4336 160.82 89.4336ZM168.602 95C168.539 94.875 168.488 94.6523 168.449 94.332C167.945 94.8555 167.344 95.1172 166.645 95.1172C166.02 95.1172 165.506 94.9414 165.104 94.5898C164.705 94.2344 164.506 93.7852 164.506 93.2422C164.506 92.582 164.756 92.0703 165.256 91.707C165.76 91.3398 166.467 91.1562 167.377 91.1562H168.432V90.6582C168.432 90.2793 168.318 89.9785 168.092 89.7559C167.865 89.5293 167.531 89.416 167.09 89.416C166.703 89.416 166.379 89.5137 166.117 89.709C165.855 89.9043 165.725 90.1406 165.725 90.418H164.635C164.635 90.1016 164.746 89.7969 164.969 89.5039C165.195 89.207 165.5 88.9727 165.883 88.8008C166.27 88.6289 166.693 88.543 167.154 88.543C167.885 88.543 168.457 88.7266 168.871 89.0938C169.285 89.457 169.5 89.959 169.516 90.5996V93.5176C169.516 94.0996 169.59 94.5625 169.738 94.9062V95H168.602ZM166.803 94.1738C167.143 94.1738 167.465 94.0859 167.77 93.9102C168.074 93.7344 168.295 93.5059 168.432 93.2246V91.9238H167.582C166.254 91.9238 165.59 92.3125 165.59 93.0898C165.59 93.4297 165.703 93.6953 165.93 93.8867C166.156 94.0781 166.447 94.1738 166.803 94.1738ZM172.686 87.125V88.6602H173.869V89.498H172.686V93.4297C172.686 93.6836 172.738 93.875 172.844 94.0039C172.949 94.1289 173.129 94.1914 173.383 94.1914C173.508 94.1914 173.68 94.168 173.898 94.1211V95C173.613 95.0781 173.336 95.1172 173.066 95.1172C172.582 95.1172 172.217 94.9707 171.971 94.6777C171.725 94.3848 171.602 93.9688 171.602 93.4297V89.498H170.447V88.6602H171.602V87.125H172.686ZM179.055 94.373C178.633 94.8691 178.014 95.1172 177.197 95.1172C176.521 95.1172 176.006 94.9219 175.65 94.5312C175.299 94.1367 175.121 93.5547 175.117 92.7852V88.6602H176.201V92.7559C176.201 93.7168 176.592 94.1973 177.373 94.1973C178.201 94.1973 178.752 93.8887 179.025 93.2715V88.6602H180.109V95H179.078L179.055 94.373ZM184.826 89.6328C184.662 89.6055 184.484 89.5918 184.293 89.5918C183.582 89.5918 183.1 89.8945 182.846 90.5V95H181.762V88.6602H182.816L182.834 89.3926C183.189 88.8262 183.693 88.543 184.346 88.543C184.557 88.543 184.717 88.5703 184.826 88.625V89.6328ZM188.342 95.1172C187.482 95.1172 186.783 94.8359 186.244 94.2734C185.705 93.707 185.436 92.9512 185.436 92.0059V91.8066C185.436 91.1777 185.555 90.6172 185.793 90.125C186.035 89.6289 186.371 89.2422 186.801 88.9648C187.234 88.6836 187.703 88.543 188.207 88.543C189.031 88.543 189.672 88.8145 190.129 89.3574C190.586 89.9004 190.814 90.6777 190.814 91.6895V92.1406H186.52C186.535 92.7656 186.717 93.2715 187.064 93.6582C187.416 94.041 187.861 94.2324 188.4 94.2324C188.783 94.2324 189.107 94.1543 189.373 93.998C189.639 93.8418 189.871 93.6348 190.07 93.377L190.732 93.8926C190.201 94.709 189.404 95.1172 188.342 95.1172ZM188.207 89.4336C187.77 89.4336 187.402 89.5938 187.105 89.9141C186.809 90.2305 186.625 90.6758 186.555 91.25H189.73V91.168C189.699 90.6172 189.551 90.1914 189.285 89.8906C189.02 89.5859 188.66 89.4336 188.207 89.4336ZM195.221 95V86.4688H197.629C198.371 86.4688 199.027 86.6328 199.598 86.9609C200.168 87.2891 200.607 87.7559 200.916 88.3613C201.229 88.9668 201.387 89.6621 201.391 90.4473V90.9922C201.391 91.7969 201.234 92.502 200.922 93.1074C200.613 93.7129 200.17 94.1777 199.592 94.502C199.018 94.8262 198.348 94.9922 197.582 95H195.221ZM196.346 87.3945V94.0801H197.529C198.396 94.0801 199.07 93.8105 199.551 93.2715C200.035 92.7324 200.277 91.9648 200.277 90.9688V90.4707C200.277 89.502 200.049 88.75 199.592 88.2148C199.139 87.6758 198.494 87.4023 197.658 87.3945H196.346ZM204.104 95H203.02V88.6602H204.104V95ZM202.932 86.9785C202.932 86.8027 202.984 86.6543 203.09 86.5332C203.199 86.4121 203.359 86.3516 203.57 86.3516C203.781 86.3516 203.941 86.4121 204.051 86.5332C204.16 86.6543 204.215 86.8027 204.215 86.9785C204.215 87.1543 204.16 87.3008 204.051 87.418C203.941 87.5352 203.781 87.5938 203.57 87.5938C203.359 87.5938 203.199 87.5352 203.09 87.418C202.984 87.3008 202.932 87.1543 202.932 86.9785ZM208.908 89.6328C208.744 89.6055 208.566 89.5918 208.375 89.5918C207.664 89.5918 207.182 89.8945 206.928 90.5V95H205.844V88.6602H206.898L206.916 89.3926C207.271 88.8262 207.775 88.543 208.428 88.543C208.639 88.543 208.799 88.5703 208.908 88.625V89.6328ZM212.424 95.1172C211.564 95.1172 210.865 94.8359 210.326 94.2734C209.787 93.707 209.518 92.9512 209.518 92.0059V91.8066C209.518 91.1777 209.637 90.6172 209.875 90.125C210.117 89.6289 210.453 89.2422 210.883 88.9648C211.316 88.6836 211.785 88.543 212.289 88.543C213.113 88.543 213.754 88.8145 214.211 89.3574C214.668 89.9004 214.896 90.6777 214.896 91.6895V92.1406H210.602C210.617 92.7656 210.799 93.2715 211.146 93.6582C211.498 94.041 211.943 94.2324 212.482 94.2324C212.865 94.2324 213.189 94.1543 213.455 93.998C213.721 93.8418 213.953 93.6348 214.152 93.377L214.814 93.8926C214.283 94.709 213.486 95.1172 212.424 95.1172ZM212.289 89.4336C211.852 89.4336 211.484 89.5938 211.188 89.9141C210.891 90.2305 210.707 90.6758 210.637 91.25H213.812V91.168C213.781 90.6172 213.633 90.1914 213.367 89.8906C213.102 89.5859 212.742 89.4336 212.289 89.4336ZM218.699 94.2324C219.086 94.2324 219.424 94.1152 219.713 93.8809C220.002 93.6465 220.162 93.3535 220.193 93.002H221.219C221.199 93.3652 221.074 93.7109 220.844 94.0391C220.613 94.3672 220.305 94.6289 219.918 94.8242C219.535 95.0195 219.129 95.1172 218.699 95.1172C217.836 95.1172 217.148 94.8301 216.637 94.2559C216.129 93.6777 215.875 92.8887 215.875 91.8887V91.707C215.875 91.0898 215.988 90.541 216.215 90.0605C216.441 89.5801 216.766 89.207 217.188 88.9414C217.613 88.6758 218.115 88.543 218.693 88.543C219.404 88.543 219.994 88.7559 220.463 89.1816C220.936 89.6074 221.188 90.1602 221.219 90.8398H220.193C220.162 90.4297 220.006 90.0938 219.725 89.832C219.447 89.5664 219.104 89.4336 218.693 89.4336C218.143 89.4336 217.715 89.6328 217.41 90.0312C217.109 90.4258 216.959 90.998 216.959 91.748V91.9531C216.959 92.6836 217.109 93.2461 217.41 93.6406C217.711 94.0352 218.141 94.2324 218.699 94.2324ZM223.908 87.125V88.6602H225.092V89.498H223.908V93.4297C223.908 93.6836 223.961 93.875 224.066 94.0039C224.172 94.1289 224.352 94.1914 224.605 94.1914C224.73 94.1914 224.902 94.168 225.121 94.1211V95C224.836 95.0781 224.559 95.1172 224.289 95.1172C223.805 95.1172 223.439 94.9707 223.193 94.6777C222.947 94.3848 222.824 93.9688 222.824 93.4297V89.498H221.67V88.6602H222.824V87.125H223.908ZM227.541 95H226.457V88.6602H227.541V95ZM226.369 86.9785C226.369 86.8027 226.422 86.6543 226.527 86.5332C226.637 86.4121 226.797 86.3516 227.008 86.3516C227.219 86.3516 227.379 86.4121 227.488 86.5332C227.598 86.6543 227.652 86.8027 227.652 86.9785C227.652 87.1543 227.598 87.3008 227.488 87.418C227.379 87.5352 227.219 87.5938 227.008 87.5938C226.797 87.5938 226.637 87.5352 226.527 87.418C226.422 87.3008 226.369 87.1543 226.369 86.9785ZM228.994 91.7715C228.994 91.1504 229.115 90.5918 229.357 90.0957C229.604 89.5996 229.943 89.2168 230.377 88.9473C230.814 88.6777 231.312 88.543 231.871 88.543C232.734 88.543 233.432 88.8418 233.963 89.4395C234.498 90.0371 234.766 90.832 234.766 91.8242V91.9004C234.766 92.5176 234.646 93.0723 234.408 93.5645C234.174 94.0527 233.836 94.4336 233.395 94.707C232.957 94.9805 232.453 95.1172 231.883 95.1172C231.023 95.1172 230.326 94.8184 229.791 94.2207C229.26 93.623 228.994 92.832 228.994 91.8477V91.7715ZM230.084 91.9004C230.084 92.6035 230.246 93.168 230.57 93.5938C230.898 94.0195 231.336 94.2324 231.883 94.2324C232.434 94.2324 232.871 94.0176 233.195 93.5879C233.52 93.1543 233.682 92.5488 233.682 91.7715C233.682 91.0762 233.516 90.5137 233.184 90.084C232.855 89.6504 232.418 89.4336 231.871 89.4336C231.336 89.4336 230.904 89.6465 230.576 90.0723C230.248 90.498 230.084 91.1074 230.084 91.9004ZM237.15 88.6602L237.186 89.457C237.67 88.8477 238.303 88.543 239.084 88.543C240.424 88.543 241.1 89.2988 241.111 90.8105V95H240.027V90.8047C240.023 90.3477 239.918 90.0098 239.711 89.791C239.508 89.5723 239.189 89.4629 238.756 89.4629C238.404 89.4629 238.096 89.5566 237.83 89.7441C237.564 89.9316 237.357 90.1777 237.209 90.4824V95H236.125V88.6602H237.15Z" fill="black"/>
<path d="M42.5527 6.00977C42.5527 6.8457 42.4121 7.57617 42.1309 8.20117C41.8496 8.82227 41.4512 9.29688 40.9355 9.625C40.4199 9.95312 39.8184 10.1172 39.1309 10.1172C38.459 10.1172 37.8633 9.95312 37.3438 9.625C36.8242 9.29297 36.4199 8.82227 36.1309 8.21289C35.8457 7.59961 35.6992 6.89062 35.6914 6.08594V5.4707C35.6914 4.65039 35.834 3.92578 36.1191 3.29688C36.4043 2.66797 36.8066 2.1875 37.3262 1.85547C37.8496 1.51953 38.4473 1.35156 39.1191 1.35156C39.8027 1.35156 40.4043 1.51758 40.9238 1.84961C41.4473 2.17773 41.8496 2.65625 42.1309 3.28516C42.4121 3.91016 42.5527 4.63867 42.5527 5.4707V6.00977ZM41.4336 5.45898C41.4336 4.44727 41.2305 3.67188 40.8242 3.13281C40.418 2.58984 39.8496 2.31836 39.1191 2.31836C38.4082 2.31836 37.8477 2.58984 37.4375 3.13281C37.0312 3.67188 36.8223 4.42188 36.8105 5.38281V6.00977C36.8105 6.99023 37.0156 7.76172 37.4258 8.32422C37.8398 8.88281 38.4082 9.16211 39.1309 9.16211C39.8574 9.16211 40.4199 8.89844 40.8184 8.37109C41.2168 7.83984 41.4219 7.08008 41.4336 6.0918V5.45898ZM44.6035 10V4.49805H43.6016V3.66016H44.6035V3.00977C44.6035 2.33008 44.7852 1.80469 45.1484 1.43359C45.5117 1.0625 46.0254 0.876953 46.6895 0.876953C46.9395 0.876953 47.1875 0.910156 47.4336 0.976562L47.375 1.85547C47.1914 1.82031 46.9961 1.80273 46.7891 1.80273C46.4375 1.80273 46.166 1.90625 45.9746 2.11328C45.7832 2.31641 45.6875 2.60938 45.6875 2.99219V3.66016H47.041V4.49805H45.6875V10H44.6035ZM48.7754 10V4.49805H47.7734V3.66016H48.7754V3.00977C48.7754 2.33008 48.957 1.80469 49.3203 1.43359C49.6836 1.0625 50.1973 0.876953 50.8613 0.876953C51.1113 0.876953 51.3594 0.910156 51.6055 0.976562L51.5469 1.85547C51.3633 1.82031 51.168 1.80273 50.9609 1.80273C50.6094 1.80273 50.3379 1.90625 50.1465 2.11328C49.9551 2.31641 49.8594 2.60938 49.8594 2.99219V3.66016H51.2129V4.49805H49.8594V10H48.7754ZM54.6699 6.81836H51.8105V5.93359H54.6699V6.81836ZM57.3535 1.46875L60.1426 8.42969L62.9316 1.46875H64.3906V10H63.2656V6.67773L63.3711 3.0918L60.5703 10H59.709L56.9141 3.10938L57.0254 6.67773V10H55.9004V1.46875H57.3535ZM70.1211 10C70.0586 9.875 70.0078 9.65234 69.9688 9.33203C69.4648 9.85547 68.8633 10.1172 68.1641 10.1172C67.5391 10.1172 67.0254 9.94141 66.623 9.58984C66.2246 9.23438 66.0254 8.78516 66.0254 8.24219C66.0254 7.58203 66.2754 7.07031 66.7754 6.70703C67.2793 6.33984 67.9863 6.15625 68.8965 6.15625H69.9512V5.6582C69.9512 5.2793 69.8379 4.97852 69.6113 4.75586C69.3848 4.5293 69.0508 4.41602 68.6094 4.41602C68.2227 4.41602 67.8984 4.51367 67.6367 4.70898C67.375 4.9043 67.2441 5.14062 67.2441 5.41797H66.1543C66.1543 5.10156 66.2656 4.79688 66.4883 4.50391C66.7148 4.20703 67.0195 3.97266 67.4023 3.80078C67.7891 3.62891 68.2129 3.54297 68.6738 3.54297C69.4043 3.54297 69.9766 3.72656 70.3906 4.09375C70.8047 4.45703 71.0195 4.95898 71.0352 5.59961V8.51758C71.0352 9.09961 71.1094 9.5625 71.2578 9.90625V10H70.1211ZM68.3223 9.17383C68.6621 9.17383 68.9844 9.08594 69.2891 8.91016C69.5938 8.73438 69.8145 8.50586 69.9512 8.22461V6.92383H69.1016C67.7734 6.92383 67.1094 7.3125 67.1094 8.08984C67.1094 8.42969 67.2227 8.69531 67.4492 8.88672C67.6758 9.07812 67.9668 9.17383 68.3223 9.17383ZM73.7598 3.66016L73.7949 4.45703C74.2793 3.84766 74.9121 3.54297 75.6934 3.54297C77.0332 3.54297 77.709 4.29883 77.7207 5.81055V10H76.6367V5.80469C76.6328 5.34766 76.5273 5.00977 76.3203 4.79102C76.1172 4.57227 75.7988 4.46289 75.3652 4.46289C75.0137 4.46289 74.7051 4.55664 74.4395 4.74414C74.1738 4.93164 73.9668 5.17773 73.8184 5.48242V10H72.7344V3.66016H73.7598ZM80.5332 10H79.4492V3.66016H80.5332V10ZM79.3613 1.97852C79.3613 1.80273 79.4141 1.6543 79.5195 1.5332C79.6289 1.41211 79.7891 1.35156 80 1.35156C80.2109 1.35156 80.3711 1.41211 80.4805 1.5332C80.5898 1.6543 80.6445 1.80273 80.6445 1.97852C80.6445 2.1543 80.5898 2.30078 80.4805 2.41797C80.3711 2.53516 80.2109 2.59375 80 2.59375C79.7891 2.59375 79.6289 2.53516 79.5195 2.41797C79.4141 2.30078 79.3613 2.1543 79.3613 1.97852ZM82.8066 10V4.49805H81.8047V3.66016H82.8066V3.00977C82.8066 2.33008 82.9883 1.80469 83.3516 1.43359C83.7148 1.0625 84.2285 0.876953 84.8926 0.876953C85.1426 0.876953 85.3906 0.910156 85.6367 0.976562L85.5781 1.85547C85.3945 1.82031 85.1992 1.80273 84.9922 1.80273C84.6406 1.80273 84.3691 1.90625 84.1777 2.11328C83.9863 2.31641 83.8906 2.60938 83.8906 2.99219V3.66016H85.2441V4.49805H83.8906V10H82.8066ZM86.1582 6.77148C86.1582 6.15039 86.2793 5.5918 86.5215 5.0957C86.7676 4.59961 87.1074 4.2168 87.541 3.94727C87.9785 3.67773 88.4766 3.54297 89.0352 3.54297C89.8984 3.54297 90.5957 3.8418 91.127 4.43945C91.6621 5.03711 91.9297 5.83203 91.9297 6.82422V6.90039C91.9297 7.51758 91.8105 8.07227 91.5723 8.56445C91.3379 9.05273 91 9.43359 90.5586 9.70703C90.1211 9.98047 89.6172 10.1172 89.0469 10.1172C88.1875 10.1172 87.4902 9.81836 86.9551 9.2207C86.4238 8.62305 86.1582 7.83203 86.1582 6.84766V6.77148ZM87.248 6.90039C87.248 7.60352 87.4102 8.16797 87.7344 8.59375C88.0625 9.01953 88.5 9.23242 89.0469 9.23242C89.5977 9.23242 90.0352 9.01758 90.3594 8.58789C90.6836 8.1543 90.8457 7.54883 90.8457 6.77148C90.8457 6.07617 90.6797 5.51367 90.3477 5.08398C90.0195 4.65039 89.582 4.43359 89.0352 4.43359C88.5 4.43359 88.0684 4.64648 87.7402 5.07227C87.4121 5.49805 87.248 6.10742 87.248 6.90039ZM94.4668 10H93.3828V1H94.4668V10ZM95.9434 6.77734C95.9434 5.80469 96.1738 5.02344 96.6348 4.43359C97.0957 3.83984 97.6992 3.54297 98.4453 3.54297C99.1875 3.54297 99.7754 3.79688 100.209 4.30469V1H101.293V10H100.297L100.244 9.32031C99.8105 9.85156 99.207 10.1172 98.4336 10.1172C97.6992 10.1172 97.0996 9.81641 96.6348 9.21484C96.1738 8.61328 95.9434 7.82812 95.9434 6.85938V6.77734ZM97.0273 6.90039C97.0273 7.61914 97.1758 8.18164 97.4727 8.58789C97.7695 8.99414 98.1797 9.19727 98.7031 9.19727C99.3906 9.19727 99.8926 8.88867 100.209 8.27148V5.35938C99.8848 4.76172 99.3867 4.46289 98.7148 4.46289C98.1836 4.46289 97.7695 4.66797 97.4727 5.07812C97.1758 5.48828 97.0273 6.0957 97.0273 6.90039ZM35.9902 24V15.4688H38.3984C39.1406 15.4688 39.7969 15.6328 40.3672 15.9609C40.9375 16.2891 41.377 16.7559 41.6855 17.3613C41.998 17.9668 42.1562 18.6621 42.1602 19.4473V19.9922C42.1602 20.7969 42.0039 21.502 41.6914 22.1074C41.3828 22.7129 40.9395 23.1777 40.3613 23.502C39.7871 23.8262 39.1172 23.9922 38.3516 24H35.9902ZM37.1152 16.3945V23.0801H38.2988C39.166 23.0801 39.8398 22.8105 40.3203 22.2715C40.8047 21.7324 41.0469 20.9648 41.0469 19.9688V19.4707C41.0469 18.502 40.8184 17.75 40.3613 17.2148C39.9082 16.6758 39.2637 16.4023 38.4277 16.3945H37.1152ZM44.873 24H43.7891V17.6602H44.873V24ZM43.7012 15.9785C43.7012 15.8027 43.7539 15.6543 43.8594 15.5332C43.9688 15.4121 44.1289 15.3516 44.3398 15.3516C44.5508 15.3516 44.7109 15.4121 44.8203 15.5332C44.9297 15.6543 44.9844 15.8027 44.9844 15.9785C44.9844 16.1543 44.9297 16.3008 44.8203 16.418C44.7109 16.5352 44.5508 16.5938 44.3398 16.5938C44.1289 16.5938 43.9688 16.5352 43.8594 16.418C43.7539 16.3008 43.7012 16.1543 43.7012 15.9785ZM49.6777 18.6328C49.5137 18.6055 49.3359 18.5918 49.1445 18.5918C48.4336 18.5918 47.9512 18.8945 47.6973 19.5V24H46.6133V17.6602H47.668L47.6855 18.3926C48.041 17.8262 48.5449 17.543 49.1973 17.543C49.4082 17.543 49.5684 17.5703 49.6777 17.625V18.6328ZM53.1934 24.1172C52.334 24.1172 51.6348 23.8359 51.0957 23.2734C50.5566 22.707 50.2871 21.9512 50.2871 21.0059V20.8066C50.2871 20.1777 50.4062 19.6172 50.6445 19.125C50.8867 18.6289 51.2227 18.2422 51.6523 17.9648C52.0859 17.6836 52.5547 17.543 53.0586 17.543C53.8828 17.543 54.5234 17.8145 54.9805 18.3574C55.4375 18.9004 55.666 19.6777 55.666 20.6895V21.1406H51.3711C51.3867 21.7656 51.5684 22.2715 51.916 22.6582C52.2676 23.041 52.7129 23.2324 53.252 23.2324C53.6348 23.2324 53.959 23.1543 54.2246 22.998C54.4902 22.8418 54.7227 22.6348 54.9219 22.377L55.584 22.8926C55.0527 23.709 54.2559 24.1172 53.1934 24.1172ZM53.0586 18.4336C52.6211 18.4336 52.2539 18.5938 51.957 18.9141C51.6602 19.2305 51.4766 19.6758 51.4062 20.25H54.582V20.168C54.5508 19.6172 54.4023 19.1914 54.1367 18.8906C53.8711 18.5859 53.5117 18.4336 53.0586 18.4336ZM59.4688 23.2324C59.8555 23.2324 60.1934 23.1152 60.4824 22.8809C60.7715 22.6465 60.9316 22.3535 60.9629 22.002H61.9883C61.9688 22.3652 61.8438 22.7109 61.6133 23.0391C61.3828 23.3672 61.0742 23.6289 60.6875 23.8242C60.3047 24.0195 59.8984 24.1172 59.4688 24.1172C58.6055 24.1172 57.918 23.8301 57.4062 23.2559C56.8984 22.6777 56.6445 21.8887 56.6445 20.8887V20.707C56.6445 20.0898 56.7578 19.541 56.9844 19.0605C57.2109 18.5801 57.5352 18.207 57.957 17.9414C58.3828 17.6758 58.8848 17.543 59.4629 17.543C60.1738 17.543 60.7637 17.7559 61.2324 18.1816C61.7051 18.6074 61.957 19.1602 61.9883 19.8398H60.9629C60.9316 19.4297 60.7754 19.0938 60.4941 18.832C60.2168 18.5664 59.873 18.4336 59.4629 18.4336C58.9121 18.4336 58.4844 18.6328 58.1797 19.0312C57.8789 19.4258 57.7285 19.998 57.7285 20.748V20.9531C57.7285 21.6836 57.8789 22.2461 58.1797 22.6406C58.4805 23.0352 58.9102 23.2324 59.4688 23.2324ZM64.6777 16.125V17.6602H65.8613V18.498H64.6777V22.4297C64.6777 22.6836 64.7305 22.875 64.8359 23.0039C64.9414 23.1289 65.1211 23.1914 65.375 23.1914C65.5 23.1914 65.6719 23.168 65.8906 23.1211V24C65.6055 24.0781 65.3281 24.1172 65.0586 24.1172C64.5742 24.1172 64.209 23.9707 63.9629 23.6777C63.7168 23.3848 63.5938 22.9688 63.5938 22.4297V18.498H62.4395V17.6602H63.5938V16.125H64.6777ZM68.3105 24H67.2266V17.6602H68.3105V24ZM67.1387 15.9785C67.1387 15.8027 67.1914 15.6543 67.2969 15.5332C67.4062 15.4121 67.5664 15.3516 67.7773 15.3516C67.9883 15.3516 68.1484 15.4121 68.2578 15.5332C68.3672 15.6543 68.4219 15.8027 68.4219 15.9785C68.4219 16.1543 68.3672 16.3008 68.2578 16.418C68.1484 16.5352 67.9883 16.5938 67.7773 16.5938C67.5664 16.5938 67.4062 16.5352 67.2969 16.418C67.1914 16.3008 67.1387 16.1543 67.1387 15.9785ZM69.7637 20.7715C69.7637 20.1504 69.8848 19.5918 70.127 19.0957C70.373 18.5996 70.7129 18.2168 71.1465 17.9473C71.584 17.6777 72.082 17.543 72.6406 17.543C73.5039 17.543 74.2012 17.8418 74.7324 18.4395C75.2676 19.0371 75.5352 19.832 75.5352 20.8242V20.9004C75.5352 21.5176 75.416 22.0723 75.1777 22.5645C74.9434 23.0527 74.6055 23.4336 74.1641 23.707C73.7266 23.9805 73.2227 24.1172 72.6523 24.1172C71.793 24.1172 71.0957 23.8184 70.5605 23.2207C70.0293 22.623 69.7637 21.832 69.7637 20.8477V20.7715ZM70.8535 20.9004C70.8535 21.6035 71.0156 22.168 71.3398 22.5938C71.668 23.0195 72.1055 23.2324 72.6523 23.2324C73.2031 23.2324 73.6406 23.0176 73.9648 22.5879C74.2891 22.1543 74.4512 21.5488 74.4512 20.7715C74.4512 20.0762 74.2852 19.5137 73.9531 19.084C73.625 18.6504 73.1875 18.4336 72.6406 18.4336C72.1055 18.4336 71.6738 18.6465 71.3457 19.0723C71.0176 19.498 70.8535 20.1074 70.8535 20.9004ZM77.9199 17.6602L77.9551 18.457C78.4395 17.8477 79.0723 17.543 79.8535 17.543C81.1934 17.543 81.8691 18.2988 81.8809 19.8105V24H80.7969V19.8047C80.793 19.3477 80.6875 19.0098 80.4805 18.791C80.2773 18.5723 79.959 18.4629 79.5254 18.4629C79.1738 18.4629 78.8652 18.5566 78.5996 18.7441C78.334 18.9316 78.127 19.1777 77.9785 19.4824V24H76.8945V17.6602H77.9199ZM86.4512 20.5371C86.4512 19.6543 86.5684 18.8066 86.8027 17.9941C87.041 17.1816 87.3945 16.4434 87.8633 15.7793C88.332 15.1152 88.8184 14.6465 89.3223 14.373L89.5449 15.0879C88.9746 15.5254 88.5059 16.1934 88.1387 17.0918C87.7754 17.9902 87.5762 18.9961 87.541 20.1094L87.5352 20.6074C87.5352 22.1152 87.8105 23.4238 88.3613 24.5332C88.6934 25.1973 89.0879 25.7168 89.5449 26.0918L89.3223 26.7539C88.8027 26.4648 88.3066 25.9805 87.834 25.3008C86.9121 23.9727 86.4512 22.3848 86.4512 20.5371ZM97.3262 20.0098C97.3262 20.8457 97.1855 21.5762 96.9043 22.2012C96.623 22.8223 96.2246 23.2969 95.709 23.625C95.1934 23.9531 94.5918 24.1172 93.9043 24.1172C93.2324 24.1172 92.6367 23.9531 92.1172 23.625C91.5977 23.293 91.1934 22.8223 90.9043 22.2129C90.6191 21.5996 90.4727 20.8906 90.4648 20.0859V19.4707C90.4648 18.6504 90.6074 17.9258 90.8926 17.2969C91.1777 16.668 91.5801 16.1875 92.0996 15.8555C92.623 15.5195 93.2207 15.3516 93.8926 15.3516C94.5762 15.3516 95.1777 15.5176 95.6973 15.8496C96.2207 16.1777 96.623 16.6562 96.9043 17.2852C97.1855 17.9102 97.3262 18.6387 97.3262 19.4707V20.0098ZM96.207 19.459C96.207 18.4473 96.0039 17.6719 95.5977 17.1328C95.1914 16.5898 94.623 16.3184 93.8926 16.3184C93.1816 16.3184 92.6211 16.5898 92.2109 17.1328C91.8047 17.6719 91.5957 18.4219 91.584 19.3828V20.0098C91.584 20.9902 91.7891 21.7617 92.1992 22.3242C92.6133 22.8828 93.1816 23.1621 93.9043 23.1621C94.6309 23.1621 95.1934 22.8984 95.5918 22.3711C95.9902 21.8398 96.1953 21.0801 96.207 20.0918V19.459ZM102.758 23.373C102.336 23.8691 101.717 24.1172 100.9 24.1172C100.225 24.1172 99.709 23.9219 99.3535 23.5312C99.002 23.1367 98.8242 22.5547 98.8203 21.7852V17.6602H99.9043V21.7559C99.9043 22.7168 100.295 23.1973 101.076 23.1973C101.904 23.1973 102.455 22.8887 102.729 22.2715V17.6602H103.812V24H102.781L102.758 23.373ZM108.529 18.6328C108.365 18.6055 108.188 18.5918 107.996 18.5918C107.285 18.5918 106.803 18.8945 106.549 19.5V24H105.465V17.6602H106.52L106.537 18.3926C106.893 17.8262 107.396 17.543 108.049 17.543C108.26 17.543 108.42 17.5703 108.529 17.625V18.6328ZM113.223 22.3184C113.223 22.0254 113.111 21.7988 112.889 21.6387C112.67 21.4746 112.285 21.334 111.734 21.2168C111.188 21.0996 110.752 20.959 110.428 20.7949C110.107 20.6309 109.869 20.4355 109.713 20.209C109.561 19.9824 109.484 19.7129 109.484 19.4004C109.484 18.8809 109.703 18.4414 110.141 18.082C110.582 17.7227 111.145 17.543 111.828 17.543C112.547 17.543 113.129 17.7285 113.574 18.0996C114.023 18.4707 114.248 18.9453 114.248 19.5234H113.158C113.158 19.2266 113.031 18.9707 112.777 18.7559C112.527 18.541 112.211 18.4336 111.828 18.4336C111.434 18.4336 111.125 18.5195 110.902 18.6914C110.68 18.8633 110.568 19.0879 110.568 19.3652C110.568 19.627 110.672 19.8242 110.879 19.957C111.086 20.0898 111.459 20.2168 111.998 20.3379C112.541 20.459 112.98 20.6035 113.316 20.7715C113.652 20.9395 113.9 21.1426 114.061 21.3809C114.225 21.6152 114.307 21.9023 114.307 22.2422C114.307 22.8086 114.08 23.2637 113.627 23.6074C113.174 23.9473 112.586 24.1172 111.863 24.1172C111.355 24.1172 110.906 24.0273 110.516 23.8477C110.125 23.668 109.818 23.418 109.596 23.0977C109.377 22.7734 109.268 22.4238 109.268 22.0488H110.352C110.371 22.4121 110.516 22.7012 110.785 22.916C111.059 23.127 111.418 23.2324 111.863 23.2324C112.273 23.2324 112.602 23.1504 112.848 22.9863C113.098 22.8184 113.223 22.5957 113.223 22.3184ZM118.221 20.5957C118.221 21.4668 118.105 22.3027 117.875 23.1035C117.648 23.9004 117.299 24.6367 116.826 25.3125C116.357 25.9883 115.865 26.4688 115.35 26.7539L115.121 26.0918C115.723 25.6309 116.205 24.916 116.568 23.9473C116.936 22.9746 117.123 21.8965 117.131 20.7129V20.5254C117.131 19.7051 117.045 18.9434 116.873 18.2402C116.701 17.5332 116.461 16.9004 116.152 16.3418C115.848 15.7832 115.504 15.3477 115.121 15.0352L115.35 14.373C115.865 14.6582 116.355 15.1348 116.82 15.8027C117.289 16.4707 117.639 17.207 117.869 18.0117C118.104 18.8164 118.221 19.6777 118.221 20.5957Z" fill="black"/>
<path d="M439.115 118.66V122H437.99V113.469H441.137C442.07 113.469 442.801 113.707 443.328 114.184C443.859 114.66 444.125 115.291 444.125 116.076C444.125 116.904 443.865 117.543 443.346 117.992C442.83 118.438 442.09 118.66 441.125 118.66H439.115ZM439.115 117.74H441.137C441.738 117.74 442.199 117.6 442.52 117.318C442.84 117.033 443 116.623 443 116.088C443 115.58 442.84 115.174 442.52 114.869C442.199 114.564 441.76 114.406 441.201 114.395H439.115V117.74ZM446.568 122H445.484V113H446.568V122ZM452.223 122C452.16 121.875 452.109 121.652 452.07 121.332C451.566 121.855 450.965 122.117 450.266 122.117C449.641 122.117 449.127 121.941 448.725 121.59C448.326 121.234 448.127 120.785 448.127 120.242C448.127 119.582 448.377 119.07 448.877 118.707C449.381 118.34 450.088 118.156 450.998 118.156H452.053V117.658C452.053 117.279 451.939 116.979 451.713 116.756C451.486 116.529 451.152 116.416 450.711 116.416C450.324 116.416 450 116.514 449.738 116.709C449.477 116.904 449.346 117.141 449.346 117.418H448.256C448.256 117.102 448.367 116.797 448.59 116.504C448.816 116.207 449.121 115.973 449.504 115.801C449.891 115.629 450.314 115.543 450.775 115.543C451.506 115.543 452.078 115.727 452.492 116.094C452.906 116.457 453.121 116.959 453.137 117.6V120.518C453.137 121.1 453.211 121.562 453.359 121.906V122H452.223ZM450.424 121.174C450.764 121.174 451.086 121.086 451.391 120.91C451.695 120.734 451.916 120.506 452.053 120.225V118.924H451.203C449.875 118.924 449.211 119.312 449.211 120.09C449.211 120.43 449.324 120.695 449.551 120.887C449.777 121.078 450.068 121.174 450.424 121.174ZM455.861 115.66L455.896 116.457C456.381 115.848 457.014 115.543 457.795 115.543C459.135 115.543 459.811 116.299 459.822 117.811V122H458.738V117.805C458.734 117.348 458.629 117.01 458.422 116.791C458.219 116.572 457.9 116.463 457.467 116.463C457.115 116.463 456.807 116.557 456.541 116.744C456.275 116.932 456.068 117.178 455.92 117.482V122H454.836V115.66H455.861ZM464.088 122.117C463.229 122.117 462.529 121.836 461.99 121.273C461.451 120.707 461.182 119.951 461.182 119.006V118.807C461.182 118.178 461.301 117.617 461.539 117.125C461.781 116.629 462.117 116.242 462.547 115.965C462.98 115.684 463.449 115.543 463.953 115.543C464.777 115.543 465.418 115.814 465.875 116.357C466.332 116.9 466.561 117.678 466.561 118.689V119.141H462.266C462.281 119.766 462.463 120.271 462.811 120.658C463.162 121.041 463.607 121.232 464.146 121.232C464.529 121.232 464.854 121.154 465.119 120.998C465.385 120.842 465.617 120.635 465.816 120.377L466.479 120.893C465.947 121.709 465.15 122.117 464.088 122.117ZM463.953 116.434C463.516 116.434 463.148 116.594 462.852 116.914C462.555 117.23 462.371 117.676 462.301 118.25H465.477V118.168C465.445 117.617 465.297 117.191 465.031 116.891C464.766 116.586 464.406 116.434 463.953 116.434Z" fill="black"/>
</svg>
